<?xml version="1.0" encoding="iso-8859-1"?>
<!-- Uploaded to: SVG Repo, www.svgrepo.com, Generator: SVG Repo Mixer Tools -->
<svg height="800px" width="800px" version="1.1" id="Layer_1" xmlns="http://www.w3.org/2000/svg" xmlns:xlink="http://www.w3.org/1999/xlink" 
	 viewBox="0 0 496.967 496.967" xml:space="preserve">
<g>
	<path style="fill:#9BAAA8;" d="M64.484,274.4c0,3.2-1.6,5.6-4,5.6l0,0c-2.4,0-4-2.4-4-5.6v-60.8c0-3.2,1.6-5.6,4-5.6l0,0
		c2.4,0,4,2.4,4,5.6V274.4z"/>
	<path style="fill:#9BAAA8;" d="M440.484,276c0,3.2-0.8,5.6-4,5.6l0,0c-3.2,0-4-2.4-4-5.6v-60c0-3.2,0.8-5.6,4-5.6l0,0
		c3.2,0,4,2.4,4,5.6V276z"/>
	<path style="fill:#9BAAA8;" d="M152.484,280c0,8.8-7.2,16-16,16l0,0c-8.8,0-16-7.2-16-16V136c0-8.8,7.2-16,16-16l0,0
		c8.8,0,16,7.2,16,16V280z"/>
</g>
<path style="fill:#889996;" d="M132.484,122.4c-8.8,0-12,7.2-12,16V168c0,0.8,1.6,0,4,0h28v-29.6
	C152.484,129.6,141.284,122.4,132.484,122.4z"/>
<path style="fill:#9BAAA8;" d="M376.484,280c0,8.8-7.2,16-16,16l0,0c-8.8,0-16-7.2-16-16V136c0-8.8,7.2-16,16-16l0,0
	c8.8,0,16,7.2,16,16V280z"/>
<path style="fill:#889996;" d="M360.484,122.4c-8.8,0-16,7.2-16,16V168h28c2.4,0,4,0.8,4,0v-30.4
	C376.484,129.6,369.284,122.4,360.484,122.4z"/>
<path style="fill:#9BAAA8;" d="M374.084,467.2l-98.4-64l98.4-72c7.2-4.8,8.8-15.2,3.2-22.4c-4.8-7.2-15.2-8.8-22.4-3.2l-106.4,78.4
	l-106.4-77.6c-7.2-4.8-16.8-3.2-22.4,3.2c-4.8,7.2-3.2,16.8,3.2,22.4l98.4,72l-98.4,64c-7.2,4.8-8.8,15.2-3.2,22.4
	c4.8,7.2,15.2,8.8,22.4,3.2l106.4-70.4l106.4,69.6c7.2,4.8,16.8,3.2,22.4-3.2C382.084,482.4,380.484,472,374.084,467.2z"/>
<g>
	<path style="fill:#889996;" d="M119.684,309.6c-4.8,7.2-3.2,16.8,3.2,22.4l38.4,28h53.6l-73.6-53.6
		C134.884,300.8,124.484,302.4,119.684,309.6z"/>
	<path style="fill:#889996;" d="M354.884,306.4l-73.6,53.6h53.6l38.4-28c7.2-4.8,8.8-15.2,3.2-22.4
		C372.484,302.4,362.084,300.8,354.884,306.4z"/>
</g>
<path style="fill:#F7B208;" d="M440.484,321.6c0,12-10.4,22.4-22.4,22.4h-339.2c-12,0-22.4-10.4-22.4-22.4v-43.2
	c0-12,10.4-22.4,22.4-22.4h339.2c12,0,22.4,10.4,22.4,22.4V321.6z"/>
<path style="fill:#F97803;" d="M440.484,280v37.6c0,12-8.8,18.4-20.8,18.4h-342.4c-12,0-20.8-6.4-20.8-18.4V280"/>
<path style="fill:#F7B208;" d="M392.484,124.8c0,10.4-8.8,19.2-19.2,19.2h-249.6c-10.4,0-19.2-8.8-19.2-19.2V19.2
	c0-10.4,8.8-19.2,19.2-19.2h249.6c10.4,0,19.2,8.8,19.2,19.2V124.8z"/>
<path style="fill:#F97803;" d="M392.484,16v108c0,10.4-9.6,20-20,20h-248c-10.4,0-20-9.6-20-20V16"/>
<g>
	<path style="fill:#333B3D;" d="M88.484,208c0,9.6-8,16-17.6,16h-20.8c-9.6,0-17.6-6.4-17.6-16l0,0c0-9.6,8-16,17.6-16h20
		C80.484,192,88.484,198.4,88.484,208L88.484,208z"/>
	<path style="fill:#333B3D;" d="M464.484,208c0,8.8-8,16-17.6,16h-20c-10.4,0-18.4-7.2-18.4-16l0,0c0-8.8,8-16,17.6-16h20
		C456.484,192,464.484,199.2,464.484,208L464.484,208z"/>
</g>
</svg>